<svg xmlns="http://www.w3.org/2000/svg" viewBox="0 0 900 380" width="900" height="380">
  <style>
    text { font-family:'Mulish','Helvetica Neue',sans-serif }
    .brand { font-family:'Panel Sans','Helvetica Neue',sans-serif; font-weight:900; fill:#100C0E }
    .play  { font-family:'Panel Sans','Helvetica Neue',sans-serif; font-weight:900; fill:#100C0E }
    .k { font-size:9px; font-weight:800; letter-spacing:.15em; fill:#100C0E; fill-opacity:.38 }
    .v { font-size:15px; font-weight:800; fill:#100C0E }
    .vs { font-size:12.5px; font-weight:700; fill:#100C0E; fill-opacity:.72 }
    .fine { font-size:8.5px; font-weight:600; fill:#100C0E; fill-opacity:.4 }
    .code { font-family:'Courier New',monospace; font-size:9px; letter-spacing:.14em; fill:#100C0E; fill-opacity:.55 }
    .chip { font-size:9.5px; font-weight:800; letter-spacing:.1em; fill:#fff }
  </style>
<rect width="900" height="380" rx="16" fill="#FBF8F3"/>
<rect x="0" y="0" width="26" height="380" rx="13" fill="#A33230"/>
<rect x="13" y="0" width="13" height="380" fill="#A33230"/>
<text class="brand" x="60" y="52" font-size="15" letter-spacing=".06em">Letní shakespearovské slavnosti</text>
<text class="brand" x="60" y="52" font-size="15" fill="#A33230" opacity="0"></text>
<text class="k" x="60" y="70">2027 · BRNO</text>
<rect x="468" y="34" width="162" height="23" rx="11.5" fill="#7C6A9C"/>
<text class="chip" x="549.0" y="49.5" text-anchor="middle">MOBILNÍ VSTUPENKA</text>
<line x1="60" y1="86" x2="630" y2="86" stroke="#100C0E" stroke-opacity=".1" stroke-width="1"/>
<text class="play" x="60" y="146" font-size="44">Sen noci svatojánské</text>
<text class="vs" x="60" y="172" fill-opacity=".5">Komedie · scéna pod širým nebem</text>
<text class="k" x="60" y="222">SCÉNA</text><text class="vs" x="60" y="241">Velké nádvoří hradu Špilberk</text>
<text class="k" x="60" y="286">DATUM · ČTVRTEK</text><text class="v" x="60" y="305">29. 7. 2027</text>
<text class="k" x="234" y="286">ZAČÁTEK</text><text class="v" x="234" y="305">20:30</text>
<text class="k" x="346" y="286">SEKTOR</text><text class="v" x="346" y="305">Nádvoří B</text>
<text class="k" x="478" y="286">ŘADA</text><text class="v" x="478" y="305">L</text>
<text class="k" x="556" y="286">SEDADLO</text><text class="v" x="556" y="305">27</text>
<rect x="60" y="322" width="570" height="30" rx="6" fill="#100C0E" fill-opacity=".045"/>
<text class="fine" x="74" y="341">Pořadatel Agentura Schok · Vstup do areálu 45 min před začátkem · Hraje se i za nepříznivého počasí.</text>
<line x1="664" y1="18" x2="664" y2="362" stroke="#100C0E" stroke-opacity=".22" stroke-width="1.6" stroke-dasharray="5 7"/>
<circle cx="664" cy="0" r="12" fill="#100C0E" fill-opacity="0"/>
<rect x="698" y="54" width="132" height="132" fill="#fff"/>
<rect x="698.00" y="101.52" width="5.28" height="5.28" fill="#100C0E"/>
<rect x="698.00" y="106.80" width="5.28" height="5.28" fill="#100C0E"/>
<rect x="698.00" y="112.08" width="5.28" height="5.28" fill="#100C0E"/>
<rect x="698.00" y="133.20" width="5.28" height="5.28" fill="#100C0E"/>
<rect x="698.00" y="138.48" width="5.28" height="5.28" fill="#100C0E"/>
<rect x="703.28" y="96.24" width="5.28" height="5.28" fill="#100C0E"/>
<rect x="703.28" y="101.52" width="5.28" height="5.28" fill="#100C0E"/>
<rect x="703.28" y="112.08" width="5.28" height="5.28" fill="#100C0E"/>
<rect x="703.28" y="117.36" width="5.28" height="5.28" fill="#100C0E"/>
<rect x="703.28" y="133.20" width="5.28" height="5.28" fill="#100C0E"/>
<rect x="708.56" y="101.52" width="5.28" height="5.28" fill="#100C0E"/>
<rect x="708.56" y="117.36" width="5.28" height="5.28" fill="#100C0E"/>
<rect x="708.56" y="122.64" width="5.28" height="5.28" fill="#100C0E"/>
<rect x="708.56" y="133.20" width="5.28" height="5.28" fill="#100C0E"/>
<rect x="708.56" y="138.48" width="5.28" height="5.28" fill="#100C0E"/>
<rect x="713.84" y="96.24" width="5.28" height="5.28" fill="#100C0E"/>
<rect x="713.84" y="133.20" width="5.28" height="5.28" fill="#100C0E"/>
<rect x="719.12" y="122.64" width="5.28" height="5.28" fill="#100C0E"/>
<rect x="719.12" y="127.92" width="5.28" height="5.28" fill="#100C0E"/>
<rect x="719.12" y="133.20" width="5.28" height="5.28" fill="#100C0E"/>
<rect x="719.12" y="138.48" width="5.28" height="5.28" fill="#100C0E"/>
<rect x="724.40" y="96.24" width="5.28" height="5.28" fill="#100C0E"/>
<rect x="724.40" y="101.52" width="5.28" height="5.28" fill="#100C0E"/>
<rect x="724.40" y="106.80" width="5.28" height="5.28" fill="#100C0E"/>
<rect x="724.40" y="117.36" width="5.28" height="5.28" fill="#100C0E"/>
<rect x="724.40" y="122.64" width="5.28" height="5.28" fill="#100C0E"/>
<rect x="724.40" y="127.92" width="5.28" height="5.28" fill="#100C0E"/>
<rect x="724.40" y="133.20" width="5.28" height="5.28" fill="#100C0E"/>
<rect x="729.68" y="106.80" width="5.28" height="5.28" fill="#100C0E"/>
<rect x="729.68" y="117.36" width="5.28" height="5.28" fill="#100C0E"/>
<rect x="729.68" y="122.64" width="5.28" height="5.28" fill="#100C0E"/>
<rect x="734.96" y="112.08" width="5.28" height="5.28" fill="#100C0E"/>
<rect x="734.96" y="117.36" width="5.28" height="5.28" fill="#100C0E"/>
<rect x="734.96" y="122.64" width="5.28" height="5.28" fill="#100C0E"/>
<rect x="734.96" y="127.92" width="5.28" height="5.28" fill="#100C0E"/>
<rect x="734.96" y="133.20" width="5.28" height="5.28" fill="#100C0E"/>
<rect x="740.24" y="59.28" width="5.28" height="5.28" fill="#100C0E"/>
<rect x="740.24" y="69.84" width="5.28" height="5.28" fill="#100C0E"/>
<rect x="740.24" y="80.40" width="5.28" height="5.28" fill="#100C0E"/>
<rect x="740.24" y="85.68" width="5.28" height="5.28" fill="#100C0E"/>
<rect x="740.24" y="90.96" width="5.28" height="5.28" fill="#100C0E"/>
<rect x="740.24" y="101.52" width="5.28" height="5.28" fill="#100C0E"/>
<rect x="740.24" y="117.36" width="5.28" height="5.28" fill="#100C0E"/>
<rect x="740.24" y="122.64" width="5.28" height="5.28" fill="#100C0E"/>
<rect x="740.24" y="138.48" width="5.28" height="5.28" fill="#100C0E"/>
<rect x="740.24" y="143.76" width="5.28" height="5.28" fill="#100C0E"/>
<rect x="740.24" y="149.04" width="5.28" height="5.28" fill="#100C0E"/>
<rect x="740.24" y="164.88" width="5.28" height="5.28" fill="#100C0E"/>
<rect x="740.24" y="170.16" width="5.28" height="5.28" fill="#100C0E"/>
<rect x="740.24" y="175.44" width="5.28" height="5.28" fill="#100C0E"/>
<rect x="745.52" y="69.84" width="5.28" height="5.28" fill="#100C0E"/>
<rect x="745.52" y="90.96" width="5.28" height="5.28" fill="#100C0E"/>
<rect x="745.52" y="101.52" width="5.28" height="5.28" fill="#100C0E"/>
<rect x="745.52" y="106.80" width="5.28" height="5.28" fill="#100C0E"/>
<rect x="745.52" y="112.08" width="5.28" height="5.28" fill="#100C0E"/>
<rect x="745.52" y="127.92" width="5.28" height="5.28" fill="#100C0E"/>
<rect x="745.52" y="138.48" width="5.28" height="5.28" fill="#100C0E"/>
<rect x="745.52" y="154.32" width="5.28" height="5.28" fill="#100C0E"/>
<rect x="745.52" y="170.16" width="5.28" height="5.28" fill="#100C0E"/>
<rect x="750.80" y="64.56" width="5.28" height="5.28" fill="#100C0E"/>
<rect x="750.80" y="69.84" width="5.28" height="5.28" fill="#100C0E"/>
<rect x="750.80" y="75.12" width="5.28" height="5.28" fill="#100C0E"/>
<rect x="750.80" y="96.24" width="5.28" height="5.28" fill="#100C0E"/>
<rect x="750.80" y="101.52" width="5.28" height="5.28" fill="#100C0E"/>
<rect x="750.80" y="117.36" width="5.28" height="5.28" fill="#100C0E"/>
<rect x="750.80" y="127.92" width="5.28" height="5.28" fill="#100C0E"/>
<rect x="750.80" y="143.76" width="5.28" height="5.28" fill="#100C0E"/>
<rect x="750.80" y="159.60" width="5.28" height="5.28" fill="#100C0E"/>
<rect x="750.80" y="170.16" width="5.28" height="5.28" fill="#100C0E"/>
<rect x="750.80" y="175.44" width="5.28" height="5.28" fill="#100C0E"/>
<rect x="756.08" y="59.28" width="5.28" height="5.28" fill="#100C0E"/>
<rect x="756.08" y="64.56" width="5.28" height="5.28" fill="#100C0E"/>
<rect x="756.08" y="80.40" width="5.28" height="5.28" fill="#100C0E"/>
<rect x="756.08" y="90.96" width="5.28" height="5.28" fill="#100C0E"/>
<rect x="756.08" y="96.24" width="5.28" height="5.28" fill="#100C0E"/>
<rect x="756.08" y="101.52" width="5.28" height="5.28" fill="#100C0E"/>
<rect x="756.08" y="112.08" width="5.28" height="5.28" fill="#100C0E"/>
<rect x="756.08" y="117.36" width="5.28" height="5.28" fill="#100C0E"/>
<rect x="756.08" y="122.64" width="5.28" height="5.28" fill="#100C0E"/>
<rect x="756.08" y="133.20" width="5.28" height="5.28" fill="#100C0E"/>
<rect x="756.08" y="149.04" width="5.28" height="5.28" fill="#100C0E"/>
<rect x="756.08" y="154.32" width="5.28" height="5.28" fill="#100C0E"/>
<rect x="756.08" y="164.88" width="5.28" height="5.28" fill="#100C0E"/>
<rect x="756.08" y="170.16" width="5.28" height="5.28" fill="#100C0E"/>
<rect x="761.36" y="69.84" width="5.28" height="5.28" fill="#100C0E"/>
<rect x="761.36" y="75.12" width="5.28" height="5.28" fill="#100C0E"/>
<rect x="761.36" y="80.40" width="5.28" height="5.28" fill="#100C0E"/>
<rect x="761.36" y="85.68" width="5.28" height="5.28" fill="#100C0E"/>
<rect x="761.36" y="90.96" width="5.28" height="5.28" fill="#100C0E"/>
<rect x="761.36" y="112.08" width="5.28" height="5.28" fill="#100C0E"/>
<rect x="761.36" y="117.36" width="5.28" height="5.28" fill="#100C0E"/>
<rect x="761.36" y="122.64" width="5.28" height="5.28" fill="#100C0E"/>
<rect x="761.36" y="133.20" width="5.28" height="5.28" fill="#100C0E"/>
<rect x="761.36" y="138.48" width="5.28" height="5.28" fill="#100C0E"/>
<rect x="761.36" y="143.76" width="5.28" height="5.28" fill="#100C0E"/>
<rect x="761.36" y="149.04" width="5.28" height="5.28" fill="#100C0E"/>
<rect x="761.36" y="154.32" width="5.28" height="5.28" fill="#100C0E"/>
<rect x="761.36" y="159.60" width="5.28" height="5.28" fill="#100C0E"/>
<rect x="761.36" y="170.16" width="5.28" height="5.28" fill="#100C0E"/>
<rect x="766.64" y="54.00" width="5.28" height="5.28" fill="#100C0E"/>
<rect x="766.64" y="85.68" width="5.28" height="5.28" fill="#100C0E"/>
<rect x="766.64" y="96.24" width="5.28" height="5.28" fill="#100C0E"/>
<rect x="766.64" y="101.52" width="5.28" height="5.28" fill="#100C0E"/>
<rect x="766.64" y="106.80" width="5.28" height="5.28" fill="#100C0E"/>
<rect x="766.64" y="112.08" width="5.28" height="5.28" fill="#100C0E"/>
<rect x="766.64" y="122.64" width="5.28" height="5.28" fill="#100C0E"/>
<rect x="766.64" y="133.20" width="5.28" height="5.28" fill="#100C0E"/>
<rect x="766.64" y="138.48" width="5.28" height="5.28" fill="#100C0E"/>
<rect x="766.64" y="164.88" width="5.28" height="5.28" fill="#100C0E"/>
<rect x="766.64" y="170.16" width="5.28" height="5.28" fill="#100C0E"/>
<rect x="771.92" y="64.56" width="5.28" height="5.28" fill="#100C0E"/>
<rect x="771.92" y="85.68" width="5.28" height="5.28" fill="#100C0E"/>
<rect x="771.92" y="96.24" width="5.28" height="5.28" fill="#100C0E"/>
<rect x="771.92" y="101.52" width="5.28" height="5.28" fill="#100C0E"/>
<rect x="771.92" y="117.36" width="5.28" height="5.28" fill="#100C0E"/>
<rect x="771.92" y="122.64" width="5.28" height="5.28" fill="#100C0E"/>
<rect x="771.92" y="133.20" width="5.28" height="5.28" fill="#100C0E"/>
<rect x="771.92" y="149.04" width="5.28" height="5.28" fill="#100C0E"/>
<rect x="771.92" y="170.16" width="5.28" height="5.28" fill="#100C0E"/>
<rect x="771.92" y="180.72" width="5.28" height="5.28" fill="#100C0E"/>
<rect x="777.20" y="54.00" width="5.28" height="5.28" fill="#100C0E"/>
<rect x="777.20" y="64.56" width="5.28" height="5.28" fill="#100C0E"/>
<rect x="777.20" y="69.84" width="5.28" height="5.28" fill="#100C0E"/>
<rect x="777.20" y="80.40" width="5.28" height="5.28" fill="#100C0E"/>
<rect x="777.20" y="85.68" width="5.28" height="5.28" fill="#100C0E"/>
<rect x="777.20" y="101.52" width="5.28" height="5.28" fill="#100C0E"/>
<rect x="777.20" y="106.80" width="5.28" height="5.28" fill="#100C0E"/>
<rect x="777.20" y="112.08" width="5.28" height="5.28" fill="#100C0E"/>
<rect x="777.20" y="133.20" width="5.28" height="5.28" fill="#100C0E"/>
<rect x="777.20" y="138.48" width="5.28" height="5.28" fill="#100C0E"/>
<rect x="777.20" y="170.16" width="5.28" height="5.28" fill="#100C0E"/>
<rect x="777.20" y="180.72" width="5.28" height="5.28" fill="#100C0E"/>
<rect x="782.48" y="64.56" width="5.28" height="5.28" fill="#100C0E"/>
<rect x="782.48" y="69.84" width="5.28" height="5.28" fill="#100C0E"/>
<rect x="782.48" y="75.12" width="5.28" height="5.28" fill="#100C0E"/>
<rect x="782.48" y="85.68" width="5.28" height="5.28" fill="#100C0E"/>
<rect x="782.48" y="101.52" width="5.28" height="5.28" fill="#100C0E"/>
<rect x="782.48" y="112.08" width="5.28" height="5.28" fill="#100C0E"/>
<rect x="782.48" y="133.20" width="5.28" height="5.28" fill="#100C0E"/>
<rect x="782.48" y="138.48" width="5.28" height="5.28" fill="#100C0E"/>
<rect x="782.48" y="143.76" width="5.28" height="5.28" fill="#100C0E"/>
<rect x="782.48" y="149.04" width="5.28" height="5.28" fill="#100C0E"/>
<rect x="782.48" y="164.88" width="5.28" height="5.28" fill="#100C0E"/>
<rect x="782.48" y="180.72" width="5.28" height="5.28" fill="#100C0E"/>
<rect x="787.76" y="96.24" width="5.28" height="5.28" fill="#100C0E"/>
<rect x="787.76" y="101.52" width="5.28" height="5.28" fill="#100C0E"/>
<rect x="787.76" y="133.20" width="5.28" height="5.28" fill="#100C0E"/>
<rect x="787.76" y="138.48" width="5.28" height="5.28" fill="#100C0E"/>
<rect x="787.76" y="143.76" width="5.28" height="5.28" fill="#100C0E"/>
<rect x="787.76" y="170.16" width="5.28" height="5.28" fill="#100C0E"/>
<rect x="787.76" y="175.44" width="5.28" height="5.28" fill="#100C0E"/>
<rect x="787.76" y="180.72" width="5.28" height="5.28" fill="#100C0E"/>
<rect x="793.04" y="106.80" width="5.28" height="5.28" fill="#100C0E"/>
<rect x="793.04" y="117.36" width="5.28" height="5.28" fill="#100C0E"/>
<rect x="793.04" y="149.04" width="5.28" height="5.28" fill="#100C0E"/>
<rect x="793.04" y="159.60" width="5.28" height="5.28" fill="#100C0E"/>
<rect x="798.32" y="96.24" width="5.28" height="5.28" fill="#100C0E"/>
<rect x="798.32" y="106.80" width="5.28" height="5.28" fill="#100C0E"/>
<rect x="798.32" y="122.64" width="5.28" height="5.28" fill="#100C0E"/>
<rect x="798.32" y="133.20" width="5.28" height="5.28" fill="#100C0E"/>
<rect x="798.32" y="138.48" width="5.28" height="5.28" fill="#100C0E"/>
<rect x="798.32" y="149.04" width="5.28" height="5.28" fill="#100C0E"/>
<rect x="798.32" y="154.32" width="5.28" height="5.28" fill="#100C0E"/>
<rect x="798.32" y="159.60" width="5.28" height="5.28" fill="#100C0E"/>
<rect x="798.32" y="164.88" width="5.28" height="5.28" fill="#100C0E"/>
<rect x="798.32" y="180.72" width="5.28" height="5.28" fill="#100C0E"/>
<rect x="803.60" y="101.52" width="5.28" height="5.28" fill="#100C0E"/>
<rect x="803.60" y="122.64" width="5.28" height="5.28" fill="#100C0E"/>
<rect x="803.60" y="133.20" width="5.28" height="5.28" fill="#100C0E"/>
<rect x="803.60" y="143.76" width="5.28" height="5.28" fill="#100C0E"/>
<rect x="803.60" y="149.04" width="5.28" height="5.28" fill="#100C0E"/>
<rect x="803.60" y="154.32" width="5.28" height="5.28" fill="#100C0E"/>
<rect x="803.60" y="164.88" width="5.28" height="5.28" fill="#100C0E"/>
<rect x="803.60" y="180.72" width="5.28" height="5.28" fill="#100C0E"/>
<rect x="808.88" y="101.52" width="5.28" height="5.28" fill="#100C0E"/>
<rect x="808.88" y="112.08" width="5.28" height="5.28" fill="#100C0E"/>
<rect x="808.88" y="143.76" width="5.28" height="5.28" fill="#100C0E"/>
<rect x="808.88" y="149.04" width="5.28" height="5.28" fill="#100C0E"/>
<rect x="808.88" y="159.60" width="5.28" height="5.28" fill="#100C0E"/>
<rect x="808.88" y="164.88" width="5.28" height="5.28" fill="#100C0E"/>
<rect x="808.88" y="180.72" width="5.28" height="5.28" fill="#100C0E"/>
<rect x="814.16" y="96.24" width="5.28" height="5.28" fill="#100C0E"/>
<rect x="814.16" y="101.52" width="5.28" height="5.28" fill="#100C0E"/>
<rect x="814.16" y="106.80" width="5.28" height="5.28" fill="#100C0E"/>
<rect x="814.16" y="112.08" width="5.28" height="5.28" fill="#100C0E"/>
<rect x="814.16" y="117.36" width="5.28" height="5.28" fill="#100C0E"/>
<rect x="814.16" y="122.64" width="5.28" height="5.28" fill="#100C0E"/>
<rect x="814.16" y="149.04" width="5.28" height="5.28" fill="#100C0E"/>
<rect x="814.16" y="159.60" width="5.28" height="5.28" fill="#100C0E"/>
<rect x="814.16" y="164.88" width="5.28" height="5.28" fill="#100C0E"/>
<rect x="814.16" y="170.16" width="5.28" height="5.28" fill="#100C0E"/>
<rect x="819.44" y="96.24" width="5.28" height="5.28" fill="#100C0E"/>
<rect x="819.44" y="101.52" width="5.28" height="5.28" fill="#100C0E"/>
<rect x="819.44" y="106.80" width="5.28" height="5.28" fill="#100C0E"/>
<rect x="819.44" y="127.92" width="5.28" height="5.28" fill="#100C0E"/>
<rect x="819.44" y="133.20" width="5.28" height="5.28" fill="#100C0E"/>
<rect x="819.44" y="149.04" width="5.28" height="5.28" fill="#100C0E"/>
<rect x="819.44" y="170.16" width="5.28" height="5.28" fill="#100C0E"/>
<rect x="819.44" y="175.44" width="5.28" height="5.28" fill="#100C0E"/>
<rect x="819.44" y="180.72" width="5.28" height="5.28" fill="#100C0E"/>
<rect x="824.72" y="96.24" width="5.28" height="5.28" fill="#100C0E"/>
<rect x="824.72" y="112.08" width="5.28" height="5.28" fill="#100C0E"/>
<rect x="824.72" y="117.36" width="5.28" height="5.28" fill="#100C0E"/>
<rect x="824.72" y="127.92" width="5.28" height="5.28" fill="#100C0E"/>
<rect x="824.72" y="143.76" width="5.28" height="5.28" fill="#100C0E"/>
<rect x="824.72" y="154.32" width="5.28" height="5.28" fill="#100C0E"/>
<rect x="824.72" y="170.16" width="5.28" height="5.28" fill="#100C0E"/>
<rect x="824.72" y="175.44" width="5.28" height="5.28" fill="#100C0E"/>
<rect x="824.72" y="180.72" width="5.28" height="5.28" fill="#100C0E"/>
<rect x="698.0" y="54.0" width="36.96" height="36.96" fill="#100C0E"/>
<rect x="703.28" y="59.28" width="26.400000000000002" height="26.400000000000002" fill="#fff"/>
<rect x="708.56" y="64.56" width="15.84" height="15.84" fill="#100C0E"/>
<rect x="793.04" y="54.0" width="36.96" height="36.96" fill="#100C0E"/>
<rect x="798.32" y="59.28" width="26.400000000000002" height="26.400000000000002" fill="#fff"/>
<rect x="803.6" y="64.56" width="15.84" height="15.84" fill="#100C0E"/>
<rect x="698.0" y="149.04000000000002" width="36.96" height="36.96" fill="#100C0E"/>
<rect x="703.28" y="154.32" width="26.400000000000002" height="26.400000000000002" fill="#fff"/>
<rect x="708.56" y="159.60000000000002" width="15.84" height="15.84" fill="#100C0E"/>
<text class="code" x="764" y="204" text-anchor="middle">LSS-2027-BRN-SNS-011938</text>
<text class="k" x="764" y="232" text-anchor="middle">II. cenová kategorie</text>
<text class="play" x="764" y="268" text-anchor="middle" font-size="27">890 Kč</text>
<rect x="698.0" y="294" width="1.4" height="34" fill="#100C0E"/>
<rect x="701.8" y="294" width="1.4" height="34" fill="#100C0E"/>
<rect x="704.8" y="294" width="3.2" height="34" fill="#100C0E"/>
<rect x="709.6" y="294" width="1.4" height="34" fill="#100C0E"/>
<rect x="712.6" y="294" width="1.4" height="34" fill="#100C0E"/>
<rect x="715.6" y="294" width="3.2" height="34" fill="#100C0E"/>
<rect x="720.4" y="294" width="1.4" height="34" fill="#100C0E"/>
<rect x="723.4" y="294" width="1.4" height="34" fill="#100C0E"/>
<rect x="726.4" y="294" width="2.2" height="34" fill="#100C0E"/>
<rect x="730.2" y="294" width="3.2" height="34" fill="#100C0E"/>
<rect x="735.0" y="294" width="3.2" height="34" fill="#100C0E"/>
<rect x="740.6" y="294" width="1.4" height="34" fill="#100C0E"/>
<rect x="743.6" y="294" width="2.2" height="34" fill="#100C0E"/>
<rect x="747.4" y="294" width="1.4" height="34" fill="#100C0E"/>
<rect x="750.4" y="294" width="1.4" height="34" fill="#100C0E"/>
<rect x="754.2" y="294" width="3.2" height="34" fill="#100C0E"/>
<rect x="759.8" y="294" width="1.4" height="34" fill="#100C0E"/>
<rect x="762.8" y="294" width="1.4" height="34" fill="#100C0E"/>
<rect x="765.8" y="294" width="1.4" height="34" fill="#100C0E"/>
<rect x="768.8" y="294" width="2.2" height="34" fill="#100C0E"/>
<rect x="772.6" y="294" width="1.4" height="34" fill="#100C0E"/>
<rect x="775.6" y="294" width="3.2" height="34" fill="#100C0E"/>
<rect x="780.4" y="294" width="3.2" height="34" fill="#100C0E"/>
<rect x="785.2" y="294" width="1.4" height="34" fill="#100C0E"/>
<rect x="788.2" y="294" width="3.2" height="34" fill="#100C0E"/>
<rect x="793.8" y="294" width="1.4" height="34" fill="#100C0E"/>
<rect x="796.8" y="294" width="1.4" height="34" fill="#100C0E"/>
<rect x="799.8" y="294" width="1.4" height="34" fill="#100C0E"/>
<rect x="803.6" y="294" width="3.2" height="34" fill="#100C0E"/>
<rect x="808.4" y="294" width="1.4" height="34" fill="#100C0E"/>
<rect x="811.4" y="294" width="2.2" height="34" fill="#100C0E"/>
<rect x="815.2" y="294" width="2.2" height="34" fill="#100C0E"/>
<rect x="819.0" y="294" width="3.2" height="34" fill="#100C0E"/>
<rect x="823.8" y="294" width="1.4" height="34" fill="#100C0E"/>
<text class="fine" x="764" y="346" text-anchor="middle">plg.partners · Ticketportal</text>
</svg>
