<svg xmlns="http://www.w3.org/2000/svg" viewBox="0 0 560 760" width="560" height="760">
  <style>
    text { font-family:'Mulish','Helvetica Neue',sans-serif }
    .brand { font-family:'Panel Sans','Helvetica Neue',sans-serif; font-weight:900; fill:#100C0E }
    .play  { font-family:'Panel Sans','Helvetica Neue',sans-serif; font-weight:900; fill:#100C0E }
    .k { font-size:9px; font-weight:800; letter-spacing:.15em; fill:#100C0E; fill-opacity:.38 }
    .v { font-size:15px; font-weight:800; fill:#100C0E }
    .vs { font-size:12.5px; font-weight:700; fill:#100C0E; fill-opacity:.72 }
    .fine { font-size:8.5px; font-weight:600; fill:#100C0E; fill-opacity:.4 }
    .code { font-family:'Courier New',monospace; font-size:9px; letter-spacing:.14em; fill:#100C0E; fill-opacity:.55 }
    .chip { font-size:9.5px; font-weight:800; letter-spacing:.1em; fill:#fff }
  </style>
<defs><linearGradient id="nightgrad" x1="0" y1="0" x2="1" y2="1"><stop offset="0%" stop-color="#1A1016"/><stop offset="60%" stop-color="#120D14"/><stop offset="100%" stop-color="#2A1418"/></linearGradient></defs>
<rect width="560" height="760" rx="20" fill="#100C0E"/>
<rect x="0" y="0" width="560" height="760" rx="20" fill="url(#nightgrad)"/>
<rect x="34" y="40" width="14" height="86" rx="7" fill="#A33230"/>
<text x="62" y="66" font-family="Panel Sans,Helvetica" font-size="15" font-weight="900" fill="#FBF8F3" letter-spacing=".04em">Letní shakespearovské</text>
<text x="62" y="88" font-family="Panel Sans,Helvetica" font-size="15" font-weight="900" fill="#FBF8F3" letter-spacing=".04em">slavnosti 2027</text>
<text x="62" y="112" class="k" style="fill:#C9A227;fill-opacity:.9">30. ROČNÍK</text>
<text x="34" y="216" font-family="Panel Sans,Helvetica" font-size="52" font-weight="900" fill="#FBF8F3">Festivalový</text>
<text x="34" y="272" font-family="Panel Sans,Helvetica" font-size="52" font-weight="900" fill="#C9A227">pas</text>
<text x="34" y="308" font-size="13" font-weight="700" fill="#FBF8F3" fill-opacity=".45">8 představení · Praha, Brno, Ostrava, Bratislava</text>
<text x="34" y="366" class="k" style="fill:#FBF8F3;fill-opacity:.42">DRŽITEL</text>
<text x="34" y="388" font-size="16" font-weight="800" fill="#FBF8F3">Jana Nováková</text>
<line x1="34" y1="402" x2="526" y2="402" stroke="#FBF8F3" stroke-opacity=".08"/>
<text x="34" y="424" class="k" style="fill:#FBF8F3;fill-opacity:.42">PLATNOST</text>
<text x="34" y="446" font-size="16" font-weight="800" fill="#FBF8F3">24. 6. – 5. 9. 2027</text>
<line x1="34" y1="460" x2="526" y2="460" stroke="#FBF8F3" stroke-opacity=".08"/>
<text x="34" y="482" class="k" style="fill:#FBF8F3;fill-opacity:.42">ZBÝVÁ</text>
<text x="34" y="504" font-size="16" font-weight="800" fill="#FBF8F3">5 z 8 představení</text>
<line x1="34" y1="518" x2="526" y2="518" stroke="#FBF8F3" stroke-opacity=".08"/>
<text x="34" y="540" class="k" style="fill:#FBF8F3;fill-opacity:.42">ÚROVEŇ</text>
<text x="34" y="562" font-size="16" font-weight="800" fill="#FBF8F3">Zlatá · od 5. sezóny</text>
<line x1="34" y1="576" x2="526" y2="576" stroke="#FBF8F3" stroke-opacity=".08"/>
<rect x="208.0" y="596" width="144" height="144" rx="10" fill="#fff"/>
<rect x="216.0" y="604" width="128" height="128" fill="#fff"/>
<rect x="216.00" y="644.96" width="5.12" height="5.12" fill="#100C0E"/>
<rect x="216.00" y="650.08" width="5.12" height="5.12" fill="#100C0E"/>
<rect x="216.00" y="660.32" width="5.12" height="5.12" fill="#100C0E"/>
<rect x="216.00" y="680.80" width="5.12" height="5.12" fill="#100C0E"/>
<rect x="221.12" y="644.96" width="5.12" height="5.12" fill="#100C0E"/>
<rect x="221.12" y="655.20" width="5.12" height="5.12" fill="#100C0E"/>
<rect x="221.12" y="670.56" width="5.12" height="5.12" fill="#100C0E"/>
<rect x="221.12" y="685.92" width="5.12" height="5.12" fill="#100C0E"/>
<rect x="226.24" y="650.08" width="5.12" height="5.12" fill="#100C0E"/>
<rect x="226.24" y="660.32" width="5.12" height="5.12" fill="#100C0E"/>
<rect x="226.24" y="675.68" width="5.12" height="5.12" fill="#100C0E"/>
<rect x="231.36" y="655.20" width="5.12" height="5.12" fill="#100C0E"/>
<rect x="231.36" y="660.32" width="5.12" height="5.12" fill="#100C0E"/>
<rect x="231.36" y="665.44" width="5.12" height="5.12" fill="#100C0E"/>
<rect x="231.36" y="670.56" width="5.12" height="5.12" fill="#100C0E"/>
<rect x="231.36" y="685.92" width="5.12" height="5.12" fill="#100C0E"/>
<rect x="236.48" y="644.96" width="5.12" height="5.12" fill="#100C0E"/>
<rect x="236.48" y="650.08" width="5.12" height="5.12" fill="#100C0E"/>
<rect x="236.48" y="660.32" width="5.12" height="5.12" fill="#100C0E"/>
<rect x="236.48" y="665.44" width="5.12" height="5.12" fill="#100C0E"/>
<rect x="236.48" y="670.56" width="5.12" height="5.12" fill="#100C0E"/>
<rect x="236.48" y="675.68" width="5.12" height="5.12" fill="#100C0E"/>
<rect x="236.48" y="685.92" width="5.12" height="5.12" fill="#100C0E"/>
<rect x="246.72" y="644.96" width="5.12" height="5.12" fill="#100C0E"/>
<rect x="246.72" y="670.56" width="5.12" height="5.12" fill="#100C0E"/>
<rect x="246.72" y="675.68" width="5.12" height="5.12" fill="#100C0E"/>
<rect x="246.72" y="685.92" width="5.12" height="5.12" fill="#100C0E"/>
<rect x="251.84" y="660.32" width="5.12" height="5.12" fill="#100C0E"/>
<rect x="251.84" y="680.80" width="5.12" height="5.12" fill="#100C0E"/>
<rect x="251.84" y="685.92" width="5.12" height="5.12" fill="#100C0E"/>
<rect x="256.96" y="614.24" width="5.12" height="5.12" fill="#100C0E"/>
<rect x="256.96" y="629.60" width="5.12" height="5.12" fill="#100C0E"/>
<rect x="256.96" y="639.84" width="5.12" height="5.12" fill="#100C0E"/>
<rect x="256.96" y="644.96" width="5.12" height="5.12" fill="#100C0E"/>
<rect x="256.96" y="650.08" width="5.12" height="5.12" fill="#100C0E"/>
<rect x="256.96" y="665.44" width="5.12" height="5.12" fill="#100C0E"/>
<rect x="256.96" y="675.68" width="5.12" height="5.12" fill="#100C0E"/>
<rect x="256.96" y="685.92" width="5.12" height="5.12" fill="#100C0E"/>
<rect x="256.96" y="706.40" width="5.12" height="5.12" fill="#100C0E"/>
<rect x="256.96" y="716.64" width="5.12" height="5.12" fill="#100C0E"/>
<rect x="256.96" y="721.76" width="5.12" height="5.12" fill="#100C0E"/>
<rect x="262.08" y="609.12" width="5.12" height="5.12" fill="#100C0E"/>
<rect x="262.08" y="614.24" width="5.12" height="5.12" fill="#100C0E"/>
<rect x="262.08" y="619.36" width="5.12" height="5.12" fill="#100C0E"/>
<rect x="262.08" y="624.48" width="5.12" height="5.12" fill="#100C0E"/>
<rect x="262.08" y="650.08" width="5.12" height="5.12" fill="#100C0E"/>
<rect x="262.08" y="655.20" width="5.12" height="5.12" fill="#100C0E"/>
<rect x="262.08" y="660.32" width="5.12" height="5.12" fill="#100C0E"/>
<rect x="262.08" y="675.68" width="5.12" height="5.12" fill="#100C0E"/>
<rect x="262.08" y="691.04" width="5.12" height="5.12" fill="#100C0E"/>
<rect x="262.08" y="696.16" width="5.12" height="5.12" fill="#100C0E"/>
<rect x="262.08" y="721.76" width="5.12" height="5.12" fill="#100C0E"/>
<rect x="267.20" y="604.00" width="5.12" height="5.12" fill="#100C0E"/>
<rect x="267.20" y="609.12" width="5.12" height="5.12" fill="#100C0E"/>
<rect x="267.20" y="614.24" width="5.12" height="5.12" fill="#100C0E"/>
<rect x="267.20" y="624.48" width="5.12" height="5.12" fill="#100C0E"/>
<rect x="267.20" y="629.60" width="5.12" height="5.12" fill="#100C0E"/>
<rect x="267.20" y="644.96" width="5.12" height="5.12" fill="#100C0E"/>
<rect x="267.20" y="650.08" width="5.12" height="5.12" fill="#100C0E"/>
<rect x="267.20" y="675.68" width="5.12" height="5.12" fill="#100C0E"/>
<rect x="267.20" y="680.80" width="5.12" height="5.12" fill="#100C0E"/>
<rect x="267.20" y="685.92" width="5.12" height="5.12" fill="#100C0E"/>
<rect x="267.20" y="696.16" width="5.12" height="5.12" fill="#100C0E"/>
<rect x="267.20" y="706.40" width="5.12" height="5.12" fill="#100C0E"/>
<rect x="267.20" y="716.64" width="5.12" height="5.12" fill="#100C0E"/>
<rect x="267.20" y="721.76" width="5.12" height="5.12" fill="#100C0E"/>
<rect x="267.20" y="726.88" width="5.12" height="5.12" fill="#100C0E"/>
<rect x="272.32" y="604.00" width="5.12" height="5.12" fill="#100C0E"/>
<rect x="272.32" y="634.72" width="5.12" height="5.12" fill="#100C0E"/>
<rect x="272.32" y="639.84" width="5.12" height="5.12" fill="#100C0E"/>
<rect x="272.32" y="655.20" width="5.12" height="5.12" fill="#100C0E"/>
<rect x="272.32" y="670.56" width="5.12" height="5.12" fill="#100C0E"/>
<rect x="272.32" y="675.68" width="5.12" height="5.12" fill="#100C0E"/>
<rect x="272.32" y="696.16" width="5.12" height="5.12" fill="#100C0E"/>
<rect x="272.32" y="726.88" width="5.12" height="5.12" fill="#100C0E"/>
<rect x="277.44" y="609.12" width="5.12" height="5.12" fill="#100C0E"/>
<rect x="277.44" y="614.24" width="5.12" height="5.12" fill="#100C0E"/>
<rect x="277.44" y="629.60" width="5.12" height="5.12" fill="#100C0E"/>
<rect x="277.44" y="639.84" width="5.12" height="5.12" fill="#100C0E"/>
<rect x="277.44" y="660.32" width="5.12" height="5.12" fill="#100C0E"/>
<rect x="277.44" y="670.56" width="5.12" height="5.12" fill="#100C0E"/>
<rect x="277.44" y="691.04" width="5.12" height="5.12" fill="#100C0E"/>
<rect x="277.44" y="706.40" width="5.12" height="5.12" fill="#100C0E"/>
<rect x="277.44" y="711.52" width="5.12" height="5.12" fill="#100C0E"/>
<rect x="277.44" y="726.88" width="5.12" height="5.12" fill="#100C0E"/>
<rect x="282.56" y="609.12" width="5.12" height="5.12" fill="#100C0E"/>
<rect x="282.56" y="619.36" width="5.12" height="5.12" fill="#100C0E"/>
<rect x="282.56" y="624.48" width="5.12" height="5.12" fill="#100C0E"/>
<rect x="282.56" y="634.72" width="5.12" height="5.12" fill="#100C0E"/>
<rect x="282.56" y="639.84" width="5.12" height="5.12" fill="#100C0E"/>
<rect x="282.56" y="644.96" width="5.12" height="5.12" fill="#100C0E"/>
<rect x="282.56" y="660.32" width="5.12" height="5.12" fill="#100C0E"/>
<rect x="282.56" y="665.44" width="5.12" height="5.12" fill="#100C0E"/>
<rect x="282.56" y="675.68" width="5.12" height="5.12" fill="#100C0E"/>
<rect x="282.56" y="696.16" width="5.12" height="5.12" fill="#100C0E"/>
<rect x="282.56" y="706.40" width="5.12" height="5.12" fill="#100C0E"/>
<rect x="282.56" y="716.64" width="5.12" height="5.12" fill="#100C0E"/>
<rect x="282.56" y="726.88" width="5.12" height="5.12" fill="#100C0E"/>
<rect x="287.68" y="634.72" width="5.12" height="5.12" fill="#100C0E"/>
<rect x="287.68" y="644.96" width="5.12" height="5.12" fill="#100C0E"/>
<rect x="287.68" y="655.20" width="5.12" height="5.12" fill="#100C0E"/>
<rect x="287.68" y="660.32" width="5.12" height="5.12" fill="#100C0E"/>
<rect x="287.68" y="685.92" width="5.12" height="5.12" fill="#100C0E"/>
<rect x="287.68" y="691.04" width="5.12" height="5.12" fill="#100C0E"/>
<rect x="287.68" y="696.16" width="5.12" height="5.12" fill="#100C0E"/>
<rect x="287.68" y="706.40" width="5.12" height="5.12" fill="#100C0E"/>
<rect x="287.68" y="711.52" width="5.12" height="5.12" fill="#100C0E"/>
<rect x="287.68" y="721.76" width="5.12" height="5.12" fill="#100C0E"/>
<rect x="292.80" y="614.24" width="5.12" height="5.12" fill="#100C0E"/>
<rect x="292.80" y="629.60" width="5.12" height="5.12" fill="#100C0E"/>
<rect x="292.80" y="639.84" width="5.12" height="5.12" fill="#100C0E"/>
<rect x="292.80" y="660.32" width="5.12" height="5.12" fill="#100C0E"/>
<rect x="292.80" y="665.44" width="5.12" height="5.12" fill="#100C0E"/>
<rect x="292.80" y="670.56" width="5.12" height="5.12" fill="#100C0E"/>
<rect x="292.80" y="680.80" width="5.12" height="5.12" fill="#100C0E"/>
<rect x="292.80" y="685.92" width="5.12" height="5.12" fill="#100C0E"/>
<rect x="292.80" y="721.76" width="5.12" height="5.12" fill="#100C0E"/>
<rect x="297.92" y="604.00" width="5.12" height="5.12" fill="#100C0E"/>
<rect x="297.92" y="614.24" width="5.12" height="5.12" fill="#100C0E"/>
<rect x="297.92" y="619.36" width="5.12" height="5.12" fill="#100C0E"/>
<rect x="297.92" y="624.48" width="5.12" height="5.12" fill="#100C0E"/>
<rect x="297.92" y="634.72" width="5.12" height="5.12" fill="#100C0E"/>
<rect x="297.92" y="650.08" width="5.12" height="5.12" fill="#100C0E"/>
<rect x="297.92" y="665.44" width="5.12" height="5.12" fill="#100C0E"/>
<rect x="297.92" y="701.28" width="5.12" height="5.12" fill="#100C0E"/>
<rect x="297.92" y="716.64" width="5.12" height="5.12" fill="#100C0E"/>
<rect x="297.92" y="721.76" width="5.12" height="5.12" fill="#100C0E"/>
<rect x="303.04" y="644.96" width="5.12" height="5.12" fill="#100C0E"/>
<rect x="303.04" y="650.08" width="5.12" height="5.12" fill="#100C0E"/>
<rect x="303.04" y="670.56" width="5.12" height="5.12" fill="#100C0E"/>
<rect x="303.04" y="680.80" width="5.12" height="5.12" fill="#100C0E"/>
<rect x="303.04" y="691.04" width="5.12" height="5.12" fill="#100C0E"/>
<rect x="303.04" y="696.16" width="5.12" height="5.12" fill="#100C0E"/>
<rect x="303.04" y="706.40" width="5.12" height="5.12" fill="#100C0E"/>
<rect x="308.16" y="650.08" width="5.12" height="5.12" fill="#100C0E"/>
<rect x="308.16" y="680.80" width="5.12" height="5.12" fill="#100C0E"/>
<rect x="308.16" y="696.16" width="5.12" height="5.12" fill="#100C0E"/>
<rect x="308.16" y="721.76" width="5.12" height="5.12" fill="#100C0E"/>
<rect x="313.28" y="655.20" width="5.12" height="5.12" fill="#100C0E"/>
<rect x="313.28" y="660.32" width="5.12" height="5.12" fill="#100C0E"/>
<rect x="313.28" y="675.68" width="5.12" height="5.12" fill="#100C0E"/>
<rect x="313.28" y="691.04" width="5.12" height="5.12" fill="#100C0E"/>
<rect x="313.28" y="696.16" width="5.12" height="5.12" fill="#100C0E"/>
<rect x="313.28" y="706.40" width="5.12" height="5.12" fill="#100C0E"/>
<rect x="313.28" y="711.52" width="5.12" height="5.12" fill="#100C0E"/>
<rect x="313.28" y="721.76" width="5.12" height="5.12" fill="#100C0E"/>
<rect x="318.40" y="650.08" width="5.12" height="5.12" fill="#100C0E"/>
<rect x="318.40" y="670.56" width="5.12" height="5.12" fill="#100C0E"/>
<rect x="318.40" y="685.92" width="5.12" height="5.12" fill="#100C0E"/>
<rect x="318.40" y="691.04" width="5.12" height="5.12" fill="#100C0E"/>
<rect x="318.40" y="696.16" width="5.12" height="5.12" fill="#100C0E"/>
<rect x="318.40" y="706.40" width="5.12" height="5.12" fill="#100C0E"/>
<rect x="318.40" y="711.52" width="5.12" height="5.12" fill="#100C0E"/>
<rect x="318.40" y="716.64" width="5.12" height="5.12" fill="#100C0E"/>
<rect x="318.40" y="721.76" width="5.12" height="5.12" fill="#100C0E"/>
<rect x="318.40" y="726.88" width="5.12" height="5.12" fill="#100C0E"/>
<rect x="323.52" y="650.08" width="5.12" height="5.12" fill="#100C0E"/>
<rect x="323.52" y="655.20" width="5.12" height="5.12" fill="#100C0E"/>
<rect x="323.52" y="660.32" width="5.12" height="5.12" fill="#100C0E"/>
<rect x="323.52" y="665.44" width="5.12" height="5.12" fill="#100C0E"/>
<rect x="323.52" y="675.68" width="5.12" height="5.12" fill="#100C0E"/>
<rect x="323.52" y="680.80" width="5.12" height="5.12" fill="#100C0E"/>
<rect x="323.52" y="685.92" width="5.12" height="5.12" fill="#100C0E"/>
<rect x="323.52" y="691.04" width="5.12" height="5.12" fill="#100C0E"/>
<rect x="323.52" y="696.16" width="5.12" height="5.12" fill="#100C0E"/>
<rect x="323.52" y="706.40" width="5.12" height="5.12" fill="#100C0E"/>
<rect x="323.52" y="716.64" width="5.12" height="5.12" fill="#100C0E"/>
<rect x="323.52" y="726.88" width="5.12" height="5.12" fill="#100C0E"/>
<rect x="328.64" y="644.96" width="5.12" height="5.12" fill="#100C0E"/>
<rect x="328.64" y="650.08" width="5.12" height="5.12" fill="#100C0E"/>
<rect x="328.64" y="660.32" width="5.12" height="5.12" fill="#100C0E"/>
<rect x="328.64" y="665.44" width="5.12" height="5.12" fill="#100C0E"/>
<rect x="328.64" y="691.04" width="5.12" height="5.12" fill="#100C0E"/>
<rect x="328.64" y="696.16" width="5.12" height="5.12" fill="#100C0E"/>
<rect x="328.64" y="701.28" width="5.12" height="5.12" fill="#100C0E"/>
<rect x="328.64" y="711.52" width="5.12" height="5.12" fill="#100C0E"/>
<rect x="333.76" y="650.08" width="5.12" height="5.12" fill="#100C0E"/>
<rect x="333.76" y="675.68" width="5.12" height="5.12" fill="#100C0E"/>
<rect x="333.76" y="680.80" width="5.12" height="5.12" fill="#100C0E"/>
<rect x="333.76" y="685.92" width="5.12" height="5.12" fill="#100C0E"/>
<rect x="333.76" y="706.40" width="5.12" height="5.12" fill="#100C0E"/>
<rect x="333.76" y="721.76" width="5.12" height="5.12" fill="#100C0E"/>
<rect x="333.76" y="726.88" width="5.12" height="5.12" fill="#100C0E"/>
<rect x="338.88" y="644.96" width="5.12" height="5.12" fill="#100C0E"/>
<rect x="338.88" y="660.32" width="5.12" height="5.12" fill="#100C0E"/>
<rect x="338.88" y="670.56" width="5.12" height="5.12" fill="#100C0E"/>
<rect x="338.88" y="675.68" width="5.12" height="5.12" fill="#100C0E"/>
<rect x="338.88" y="685.92" width="5.12" height="5.12" fill="#100C0E"/>
<rect x="338.88" y="691.04" width="5.12" height="5.12" fill="#100C0E"/>
<rect x="338.88" y="696.16" width="5.12" height="5.12" fill="#100C0E"/>
<rect x="338.88" y="711.52" width="5.12" height="5.12" fill="#100C0E"/>
<rect x="338.88" y="721.76" width="5.12" height="5.12" fill="#100C0E"/>
<rect x="216.0" y="604.0" width="35.84" height="35.84" fill="#100C0E"/>
<rect x="221.12" y="609.12" width="25.6" height="25.6" fill="#fff"/>
<rect x="226.24" y="614.24" width="15.36" height="15.36" fill="#100C0E"/>
<rect x="308.15999999999997" y="604.0" width="35.84" height="35.84" fill="#100C0E"/>
<rect x="313.28" y="609.12" width="25.6" height="25.6" fill="#fff"/>
<rect x="318.4" y="614.24" width="15.36" height="15.36" fill="#100C0E"/>
<rect x="216.0" y="696.16" width="35.84" height="35.84" fill="#100C0E"/>
<rect x="221.12" y="701.28" width="25.6" height="25.6" fill="#fff"/>
<rect x="226.24" y="706.4" width="15.36" height="15.36" fill="#100C0E"/>
</svg>
